<svg width="800" height="400" viewBox="0 0 800 400" xmlns="http://www.w3.org/2000/svg"><rect x="0" y="0" width="800" height="400" fill="#fff"/><clipPath id="satori_cp-id-0"><rect x="350" y="111" width="100" height="100"/></clipPath><mask id="satori_om-id-0"><rect x="350" y="111" width="100" height="100" fill="#fff"/></mask><image x="350" y="111" width="100" height="100" href="data:image/svg+xml;utf8,%3Csvg  fill=%22none%22 xmlns=%22http://www.w3.org/2000/svg%22 width=%22100%22 height=%22100%22 viewBox=%220 0 512 512%22%3E%3Crect width=%22512%22 height=%22512%22 rx=%22248.544%22 fill=%22black%22%3E%3C/rect%3E%3Cpath d=%22M319.769 111.214C319.769 146.069 291.513 174.325 256.657 174.325C221.801 174.325 193.545 146.069 193.545 111.214C193.545 76.3577 221.801 48.1016 256.657 48.1016C291.513 48.1016 319.769 76.3577 319.769 111.214Z%22 fill=%22white%22%3E%3C/path%3E%3Cpath d=%22M59.8434 293.393C54.3724 279.141 61.4912 263.152 75.7437 257.681L392.283 136.173C406.536 130.702 422.525 137.82 427.996 152.073C433.467 166.325 426.348 182.314 412.095 187.785L154.564 287.556L95.5559 309.293C81.3035 314.764 65.3145 307.646 59.8434 293.393Z%22 fill=%22white%22%3E%3C/path%3E%3Cpath d=%22M265.938 220.731C265.938 205.354 278.404 192.888 293.782 192.888C309.159 192.888 321.625 205.354 321.625 220.731V432.342C321.625 447.72 309.159 460.185 293.782 460.185C278.404 460.185 265.938 447.72 265.938 432.342L265.938 356.236V348.811L265.938 220.731Z%22 fill=%22white%22%3E%3C/path%3E%3Cpath d=%22M195.402 270.966C195.402 255.589 207.867 207.738 223.245 207.738C238.623 207.738 251.089 220.204 251.089 235.581L251.088 348.811V350.668L251.089 356.236V436.054C251.089 451.432 238.623 463.898 223.245 463.898C207.867 463.898 195.402 451.432 195.402 436.054L195.401 291.268V282.02L195.402 270.966Z%22 fill=%22white%22%3E%3C/path%3E%3Cpath d=%22M239.951 233.725H277.075V348.811H265.938H258.513H252.944H251.088H239.951V233.725Z%22 fill=%22white%22%3E%3C/path%3E%3Cpath d=%22M195.402 270.966L177.959 277.662L154.564 287.556C184.264 278.275 195.401 281.987 195.401 291.268V282.02L195.402 270.966Z%22 fill=%22white%22%3E%3C/path%3E%3Cpath d=%22M251.088 348.811V350.668L251.089 356.236C251.089 352.524 254.801 348.811 258.513 348.811H252.944H251.088Z%22 fill=%22white%22%3E%3C/path%3E%3Cpath d=%22M265.938 348.811H258.513C262.226 348.811 265.938 352.524 265.938 356.236V348.811Z%22 fill=%22white%22%3E%3C/path%3E%3C/svg%3E" preserveAspectRatio="none" clip-path="url(#satori_cp-id-0)" mask="url(#satori_om-id-0)"/><path fill="black" d="M272.9 263.0L267.0 281.0L261.8 281.0L269.8 257.7L276.1 257.7L284.2 281.0L278.9 281.0L273.1 263.0L272.9 263.0ZM266.7 275.6L266.7 271.8L279.2 271.8L279.2 275.6L266.7 275.6ZM291.7 270.9L291.7 270.9L291.7 281.0L286.9 281.0L286.9 263.5L291.5 263.5L291.5 266.6L291.7 266.6Q292.3 265.1 293.6 264.2Q295.0 263.3 296.9 263.3L296.9 263.3Q298.8 263.3 300.1 264.1Q301.5 264.9 302.2 266.3Q303.0 267.8 303.0 269.8L303.0 269.8L303.0 281.0L298.1 281.0L298.1 270.7Q298.1 269.1 297.3 268.2Q296.5 267.3 295.0 267.3L295.0 267.3Q294.0 267.3 293.3 267.7Q292.5 268.1 292.1 268.9Q291.7 269.7 291.7 270.9ZM305.5 263.5L316.0 263.5L316.0 267.1L305.5 267.1L305.5 263.5ZM307.9 276.2L307.9 259.3L312.8 259.3L312.8 275.6Q312.8 276.3 313.0 276.6Q313.2 277.0 313.5 277.1Q313.9 277.3 314.4 277.3L314.4 277.3Q314.7 277.3 315.1 277.2Q315.4 277.2 315.6 277.1L315.6 277.1L316.4 280.7Q316 280.8 315.3 281.0Q314.7 281.2 313.7 281.2L313.7 281.2Q312.0 281.3 310.7 280.7Q309.4 280.2 308.6 279.1Q307.9 277.9 307.9 276.2L307.9 276.2ZM326.9 281.3L326.9 281.3Q324.3 281.3 322.3 280.2Q320.4 279.0 319.4 277.0Q318.3 275.0 318.3 272.3L318.3 272.3Q318.3 269.6 319.4 267.6Q320.4 265.5 322.3 264.4Q324.3 263.3 326.9 263.3L326.9 263.3Q329.5 263.3 331.5 264.4Q333.4 265.5 334.4 267.6Q335.5 269.6 335.5 272.3L335.5 272.3Q335.5 275.0 334.4 277.0Q333.4 279.0 331.5 280.2Q329.5 281.3 326.9 281.3ZM326.9 277.5L326.9 277.5Q328.1 277.5 328.9 276.9Q329.7 276.2 330.2 275.0Q330.6 273.8 330.6 272.3L330.6 272.3Q330.6 270.7 330.2 269.5Q329.7 268.3 328.9 267.7Q328.1 267.0 326.9 267.0L326.9 267.0Q325.7 267.0 324.9 267.7Q324.1 268.3 323.6 269.5Q323.2 270.7 323.2 272.3L323.2 272.3Q323.2 273.8 323.6 275.0Q324.1 276.2 324.9 276.9Q325.7 277.5 326.9 277.5ZM343.5 270.9L343.5 270.9L343.5 281.0L338.6 281.0L338.6 263.5L343.3 263.5L343.3 266.6L343.5 266.6Q344.0 265.1 345.4 264.2Q346.8 263.3 348.7 263.3L348.7 263.3Q350.5 263.3 351.9 264.1Q353.2 264.9 354.0 266.3Q354.7 267.8 354.7 269.8L354.7 269.8L354.7 281.0L349.9 281.0L349.9 270.7Q349.9 269.1 349.1 268.2Q348.3 267.3 346.8 267.3L346.8 267.3Q345.8 267.3 345.1 267.7Q344.3 268.1 343.9 268.9Q343.5 269.7 343.5 270.9Z M383.4 264.4L378.7 264.4Q378.5 263.0 377.5 262.2Q376.5 261.5 374.7 261.5L374.7 261.5Q373.5 261.5 372.7 261.8Q371.8 262.1 371.4 262.7Q371.0 263.3 371.0 264.1L371.0 264.1Q370.9 264.7 371.2 265.2Q371.5 265.6 372.0 266.0Q372.5 266.3 373.2 266.5Q373.9 266.8 374.6 267.0L374.6 267.0L376.7 267.5Q378.3 267.8 379.5 268.4Q380.8 268.9 381.7 269.8Q382.7 270.6 383.2 271.7Q383.7 272.8 383.7 274.3L383.7 274.3Q383.7 276.4 382.6 278.0Q381.6 279.6 379.5 280.4Q377.5 281.3 374.7 281.3L374.7 281.3Q371.9 281.3 369.8 280.4Q367.7 279.6 366.5 277.9Q365.4 276.2 365.3 273.6L365.3 273.6L370.1 273.6Q370.1 274.8 370.7 275.6Q371.3 276.4 372.3 276.8Q373.4 277.2 374.6 277.2L374.6 277.2Q375.9 277.2 376.8 276.8Q377.7 276.4 378.2 275.8Q378.7 275.1 378.7 274.3L378.7 274.3Q378.7 273.5 378.3 273.0Q377.8 272.4 376.9 272.1Q376.1 271.7 374.8 271.4L374.8 271.4L372.3 270.7Q369.3 270.0 367.6 268.5Q365.9 267.0 365.9 264.4L365.9 264.4Q365.9 262.3 367.1 260.7Q368.2 259.1 370.2 258.2Q372.2 257.4 374.7 257.4L374.7 257.4Q377.3 257.4 379.3 258.2Q381.2 259.1 382.3 260.7Q383.4 262.3 383.4 264.4L383.4 264.4ZM385.7 263.5L396.2 263.5L396.2 267.1L385.7 267.1L385.7 263.5ZM388.1 276.2L388.1 259.3L392.9 259.3L392.9 275.6Q392.9 276.3 393.1 276.6Q393.3 277.0 393.7 277.1Q394.1 277.3 394.6 277.3L394.6 277.3Q394.9 277.3 395.2 277.2Q395.6 277.2 395.8 277.1L395.8 277.1L396.5 280.7Q396.2 280.8 395.5 281.0Q394.8 281.2 393.9 281.2L393.9 281.2Q392.1 281.3 390.8 280.7Q389.5 280.2 388.8 279.1Q388.1 277.9 388.1 276.2L388.1 276.2ZM404.3 281.3L404.3 281.3Q402.7 281.3 401.4 280.7Q400.0 280.1 399.3 279.0Q398.5 277.8 398.5 276.1L398.5 276.1Q398.5 274.6 399.1 273.6Q399.6 272.6 400.5 272.0Q401.4 271.4 402.6 271.1Q403.8 270.8 405.1 270.7L405.1 270.7Q406.6 270.5 407.5 270.4Q408.5 270.3 408.9 270.0Q409.3 269.7 409.3 269.1L409.3 269.1L409.3 269.1Q409.3 268.0 408.6 267.4Q408.0 266.8 406.7 266.8L406.7 266.8Q405.4 266.8 404.6 267.4Q403.9 268.0 403.6 268.8L403.6 268.8L399.1 268.5Q399.5 266.9 400.5 265.7Q401.5 264.5 403.1 263.9Q404.7 263.3 406.7 263.3L406.7 263.3Q408.2 263.3 409.5 263.6Q410.9 264.0 411.9 264.7Q413.0 265.4 413.6 266.5Q414.2 267.6 414.2 269.2L414.2 269.2L414.2 281.0L409.6 281.0L409.6 278.5L409.4 278.5Q409.0 279.3 408.3 280.0Q407.6 280.6 406.6 280.9Q405.6 281.3 404.3 281.3ZM405.7 277.9L405.7 277.9Q406.8 277.9 407.6 277.5Q408.4 277.1 408.9 276.4Q409.4 275.6 409.4 274.7L409.4 274.7L409.4 272.9Q409.1 273.0 408.7 273.1Q408.3 273.2 407.9 273.3Q407.4 273.4 406.9 273.5Q406.4 273.6 406.0 273.6L406.0 273.6Q405.1 273.8 404.5 274.0Q403.9 274.3 403.5 274.8Q403.2 275.2 403.2 275.9L403.2 275.9Q403.2 276.9 403.9 277.4Q404.6 277.9 405.7 277.9ZM417.9 257.7L422.8 257.7L422.8 281.0L417.9 281.0L417.9 257.7ZM426.6 257.7L431.5 257.7L431.5 281.0L426.6 281.0L426.6 257.7ZM440.2 281.0L435.4 281.0L435.4 257.7L440.3 257.7L440.3 266.4L440.4 266.4Q440.7 265.7 441.3 265.0Q441.9 264.3 442.9 263.8Q443.9 263.3 445.4 263.3L445.4 263.3Q447.3 263.3 448.9 264.3Q450.5 265.3 451.5 267.3Q452.4 269.2 452.4 272.2L452.4 272.2Q452.4 275.2 451.5 277.2Q450.6 279.2 449.0 280.2Q447.4 281.2 445.4 281.2L445.4 281.2Q444.0 281.2 443.0 280.8Q442.0 280.3 441.4 279.6Q440.7 278.9 440.4 278.2L440.4 278.2L440.2 278.2L440.2 281.0ZM440.2 272.2L440.2 272.2Q440.2 273.8 440.6 274.9Q441.0 276.1 441.8 276.7Q442.7 277.4 443.8 277.4L443.8 277.4Q445.0 277.4 445.8 276.7Q446.6 276.1 447.1 274.9Q447.5 273.7 447.5 272.2L447.5 272.2Q447.5 270.7 447.1 269.6Q446.7 268.4 445.8 267.8Q445.0 267.1 443.8 267.1L443.8 267.1Q442.6 267.1 441.8 267.7Q441.0 268.4 440.6 269.5Q440.2 270.7 440.2 272.2ZM463.5 281.3L463.5 281.3Q460.9 281.3 459.0 280.2Q457.0 279.0 456.0 277.0Q455.0 275.0 455.0 272.3L455.0 272.3Q455.0 269.6 456.0 267.6Q457.0 265.5 459.0 264.4Q460.9 263.3 463.5 263.3L463.5 263.3Q466.2 263.3 468.1 264.4Q470.0 265.5 471.1 267.6Q472.1 269.6 472.1 272.3L472.1 272.3Q472.1 275.0 471.1 277.0Q470.0 279.0 468.1 280.2Q466.2 281.3 463.5 281.3ZM463.6 277.5L463.6 277.5Q464.8 277.5 465.6 276.9Q466.4 276.2 466.8 275.0Q467.2 273.8 467.2 272.3L467.2 272.3Q467.2 270.7 466.8 269.5Q466.4 268.3 465.6 267.7Q464.8 267.0 463.6 267.0L463.6 267.0Q462.4 267.0 461.5 267.7Q460.7 268.3 460.3 269.5Q459.9 270.7 459.9 272.3L459.9 272.3Q459.9 273.8 460.3 275.0Q460.7 276.2 461.5 276.9Q462.4 277.5 463.6 277.5ZM460.1 261.1L460.1 261.1Q459.1 261.1 458.4 260.4Q457.7 259.7 457.7 258.8L457.7 258.8Q457.7 257.8 458.4 257.2Q459.1 256.5 460.1 256.5L460.1 256.5Q461.1 256.5 461.8 257.2Q462.4 257.8 462.4 258.8L462.4 258.8Q462.4 259.7 461.8 260.4Q461.1 261.1 460.1 261.1ZM467.0 261.1L467.0 261.1Q466.1 261.1 465.4 260.4Q464.6 259.7 464.6 258.8L464.6 258.8Q464.6 257.8 465.4 257.2Q466.1 256.5 467.0 256.5L467.0 256.5Q468.0 256.5 468.7 257.2Q469.4 257.8 469.4 258.8L469.4 258.8Q469.4 259.7 468.7 260.4Q468.0 261.1 467.0 261.1ZM480.1 281.0L475.3 281.0L475.3 263.5L480.0 263.5L480.0 266.5L480.2 266.5Q480.6 264.9 481.8 264.1Q482.9 263.2 484.4 263.2L484.4 263.2Q484.7 263.2 485.1 263.3Q485.6 263.3 485.9 263.4L485.9 263.4L485.9 267.7Q485.5 267.6 484.9 267.5Q484.3 267.5 483.8 267.5L483.8 267.5Q482.8 267.5 481.9 267.9Q481.1 268.4 480.6 269.2Q480.1 270.0 480.1 271.1L480.1 271.1L480.1 281.0ZM495.4 287.9L495.4 287.9Q493.1 287.9 491.4 287.2Q489.7 286.6 488.7 285.5Q487.7 284.4 487.4 283.0L487.4 283.0L491.9 282.4Q492.1 282.9 492.6 283.4Q493.0 283.8 493.7 284.1Q494.5 284.4 495.5 284.4L495.5 284.4Q497.1 284.4 498.1 283.6Q499.2 282.8 499.2 281.1L499.2 281.1L499.2 277.9L499.0 277.9Q498.6 278.6 498.0 279.2Q497.4 279.9 496.4 280.3Q495.4 280.7 494.0 280.7L494.0 280.7Q492.0 280.7 490.4 279.8Q488.8 278.9 487.9 277.0Q486.9 275.1 486.9 272.2L486.9 272.2Q486.9 269.2 487.9 267.2Q488.8 265.2 490.4 264.3Q492.1 263.3 494.0 263.3L494.0 263.3Q495.4 263.3 496.4 263.8Q497.4 264.3 498.0 265.0Q498.6 265.7 499.0 266.4L499.0 266.4L499.1 266.4L499.1 263.5L504.0 263.5L504.0 281.1Q504.0 283.3 502.9 284.8Q501.8 286.3 499.8 287.1Q497.9 287.9 495.4 287.9ZM495.5 277.1L495.5 277.1Q496.7 277.1 497.5 276.5Q498.3 275.9 498.8 274.8Q499.2 273.7 499.2 272.2L499.2 272.2Q499.2 270.6 498.8 269.5Q498.3 268.4 497.5 267.7Q496.7 267.1 495.5 267.1L495.5 267.1Q494.3 267.1 493.5 267.8Q492.7 268.4 492.3 269.5Q491.9 270.7 491.9 272.2L491.9 272.2Q491.9 273.7 492.3 274.8Q492.7 275.9 493.5 276.5Q494.3 277.1 495.5 277.1ZM515.8 281.3L515.8 281.3Q513.1 281.3 511.1 280.2Q509.2 279.1 508.2 277.1Q507.1 275.1 507.1 272.3L507.1 272.3Q507.1 269.6 508.2 267.6Q509.2 265.5 511.1 264.4Q513.0 263.3 515.6 263.3L515.6 263.3Q517.3 263.3 518.8 263.8Q520.3 264.4 521.4 265.5Q522.5 266.6 523.2 268.2Q523.8 269.9 523.8 272.1L523.8 272.1L523.8 273.5L509.0 273.5L509.0 270.5L519.2 270.5Q519.2 269.4 518.8 268.6Q518.3 267.8 517.5 267.3Q516.7 266.9 515.7 266.9L515.7 266.9Q514.6 266.9 513.7 267.4Q512.9 267.9 512.4 268.7Q511.9 269.6 511.9 270.6L511.9 270.6L511.9 273.5Q511.9 274.8 512.4 275.7Q512.9 276.7 513.7 277.2Q514.6 277.7 515.9 277.7L515.9 277.7Q516.7 277.7 517.3 277.5Q518.0 277.2 518.5 276.8Q519.0 276.3 519.2 275.7L519.2 275.7L523.7 276.0Q523.3 277.6 522.3 278.8Q521.2 280.0 519.6 280.6Q517.9 281.3 515.8 281.3ZM531.8 281.0L526.9 281.0L526.9 263.5L531.6 263.5L531.6 266.5L531.8 266.5Q532.3 264.9 533.4 264.1Q534.5 263.2 536.0 263.2L536.0 263.2Q536.4 263.2 536.8 263.3Q537.2 263.3 537.5 263.4L537.5 263.4L537.5 267.7Q537.2 267.6 536.6 267.5Q536.0 267.5 535.5 267.5L535.5 267.5Q534.4 267.5 533.6 267.9Q532.7 268.4 532.3 269.2Q531.8 270.0 531.8 271.1L531.8 271.1L531.8 281.0Z "/></svg>